<?xml version="1.0" encoding="UTF-8"?>
<svg id="Layer_2" data-name="Layer 2" xmlns="http://www.w3.org/2000/svg" xmlns:xlink="http://www.w3.org/1999/xlink" viewBox="0 0 362.62 362.62">
  <defs>
    <style>
      .cls-1 {
        fill: url(#linear-gradient);
      }
    </style>
    <linearGradient id="linear-gradient" x1="25.75" y1="336.87" x2="336.87" y2="25.75" gradientUnits="userSpaceOnUse">
      <stop offset="0" stop-color="#ed4363"/>
      <stop offset="1" stop-color="#ef7375"/>
    </linearGradient>
  </defs>
  <g id="Layer_1-2" data-name="Layer 1">
    <g id="KINETIX_Cross">
      <g id="Calque_1" data-name="Calque 1">
        <path class="cls-1" d="m352.08,270.76l-83.79-83.79c-3.12-3.12-3.12-8.19,0-11.31l83.79-83.79c14.06-14.06,14.06-36.85,0-50.91l-30.41-30.41c-14.06-14.06-36.85-14.06-50.91,0l-83.79,83.79c-3.12,3.12-8.19,3.12-11.31,0L91.86,10.54c-14.06-14.06-36.85-14.06-50.91,0l-30.41,30.41c-14.06,14.06-14.06,36.85,0,50.91l83.79,83.79c3.12,3.12,3.12,8.19,0,11.31L10.54,270.76c-14.06,14.06-14.06,36.85,0,50.91l30.41,30.41c14.06,14.06,36.85,14.06,50.91,0l83.79-83.79c3.12-3.12,8.19-3.12,11.31,0l83.79,83.79c14.06,14.06,36.85,14.06,50.91,0l30.41-30.41c14.06-14.06,14.06-36.85,0-50.91Zm-65.76,45.96c-6.25,6.25-16.38,6.25-22.63,0l-68.24-68.24-5.66-5.66c-4.69-4.69-12.28-4.69-16.97,0l-5.66,5.66-68.24,68.24c-6.25,6.25-16.38,6.25-22.63,0l-30.41-30.41c-6.25-6.25-6.25-16.38,0-22.63l68.24-68.24,5.66-5.66c4.69-4.69,4.69-12.28,0-16.97l-5.66-5.66L45.9,98.93c-6.25-6.25-6.25-16.38,0-22.63l30.41-30.41c6.25-6.25,16.38-6.25,22.63,0l68.24,68.24,5.66,5.66c4.69,4.69,12.28,4.69,16.97,0l5.66-5.66,68.24-68.24c6.25-6.25,16.38-6.25,22.63,0l30.41,30.41c6.25,6.25,6.25,16.38,0,22.63l-68.24,68.24-5.66,5.66c-4.69,4.69-4.69,12.28,0,16.97l5.66,5.66,68.24,68.24c6.25,6.25,6.25,16.38,0,22.63l-30.41,30.41Z"/>
      </g>
    </g>
  </g>
</svg>